<svg width="3000" height="482" fill="none" xmlns="http://www.w3.org/2000/svg"><path d="M3001.5 230c-42 10.4-131.17-47-170.5-77-200.5-137-350.5-119-382-112-30.5 6.78-166 64.51-205.5 70-43.2 6-120-18.88-153-32.06-26.83-10.84-89.1-17.7-123.5 41.5-34.4 59.2-73 39.66-88 22.5-28.83-24.5-96.1-51.1-134.5 38.5-38.4 89.6-105.33 52.33-134 22.5-42.83-53.17-179-135.26-234-35-28.39 51.74-119.03 215.5-180.5 225.5-41.5 6.74-115.5 2.6-179.5-69s-120.33-69.17-140.5-59c-19.33 4.02-73.37 40.98-170 114.56-109 83-210.5 16-246.5-15-36.93-31.8-140-106-256.5-40.56C125 369.24 35.33 385.48-4.5 381" stroke="#99E9F9"/><path d="M-11.5 257.18C7 242.46 61.4 235.7 131 326.5 218 440 351 545 459 432s166-75.5 248-105.5c65.6-24 132.67-74.54 166.5-96.82 38-25.01 88.67 7 103 41.26 13.28 31.74 79 123.56 115.5 128 38.5 4.68 79.71-19.4 178.5-141.76 77.5-96 192.5-31.75 210-27.5 17.5 4.26 93.2 34.86 152-36.74s160.17-39.5 203.5-14.5c22.83 6.83 76.9.7 110.5-78.5 33.6-79.2 114.5-74.94 142-62.44 40 18.18 91.08 87 143 87 116.5 0 182-90.06 182-90.06 44-47.94 100.4-29.49 148 54.06 59.5 104.44 180.5 50 227.5 0 54.14-57.6 184-122.5 213.5-66" stroke="#1E96FD"/><path d="M1270 263.68a6 6 0 100-12 6 6 0 000 12z" fill="url(#paint0_radial)"/><path d="M1504 135.68a5 5 0 100-10 5 5 0 000 10z" fill="url(#paint1_radial)"/><path d="M2032.46 77.3a8 8 0 1013.08-9.24 8 8 0 00-13.08 9.23z" fill="url(#paint2_radial)"/><path d="M421.61 344.76a8 8 0 1013.08-9.22 8 8 0 00-13.08 9.22z" fill="url(#paint3_radial)"/><path d="M876 295.68a46 46 0 100-92 46 46 0 000 92z" fill="url(#paint4_radial)"/><path d="M2675.68 77.46a7.68 7.68 0 10.2-15.36 7.68 7.68 0 00-.2 15.36z" fill="url(#paint5_radial)"/><defs><radialGradient id="paint0_radial" cx="0" cy="0" r="1" gradientUnits="userSpaceOnUse" gradientTransform="translate(1266.22 251.86) scale(11.907)"><stop stop-color="#F7FCFD"/><stop offset=".26" stop-color="#82D3FD"/><stop offset=".41" stop-color="#74CDFD"/><stop offset=".53" stop-color="#60C5FE"/><stop offset=".74" stop-color="#48BAFD"/><stop offset=".83" stop-color="#36AFFD"/><stop offset=".92" stop-color="#26A6FE"/><stop offset="1" stop-color="#23A0FD"/></radialGradient><radialGradient id="paint1_radial" cx="0" cy="0" r="1" gradientUnits="userSpaceOnUse" gradientTransform="translate(1500.85 125.83) scale(9.92251)"><stop stop-color="#F7FCFD"/><stop offset=".26" stop-color="#82D3FD"/><stop offset=".41" stop-color="#74CDFD"/><stop offset=".53" stop-color="#60C5FE"/><stop offset=".74" stop-color="#48BAFD"/><stop offset=".83" stop-color="#36AFFD"/><stop offset=".92" stop-color="#26A6FE"/><stop offset="1" stop-color="#23A0FD"/></radialGradient><radialGradient id="paint2_radial" cx="0" cy="0" r="1" gradientUnits="userSpaceOnUse" gradientTransform="rotate(54.81 959.42 2001.82) scale(15.876)"><stop stop-color="#F7FCFD"/><stop offset=".26" stop-color="#82D3FD"/><stop offset=".41" stop-color="#74CDFD"/><stop offset=".53" stop-color="#60C5FE"/><stop offset=".74" stop-color="#48BAFD"/><stop offset=".83" stop-color="#36AFFD"/><stop offset=".92" stop-color="#26A6FE"/><stop offset="1" stop-color="#23A0FD"/></radialGradient><radialGradient id="paint3_radial" cx="0" cy="0" r="1" gradientUnits="userSpaceOnUse" gradientTransform="rotate(54.81 -103.96 582.02) scale(15.876)"><stop stop-color="#F7FCFD"/><stop offset=".26" stop-color="#82D3FD"/><stop offset=".41" stop-color="#74CDFD"/><stop offset=".53" stop-color="#60C5FE"/><stop offset=".74" stop-color="#48BAFD"/><stop offset=".83" stop-color="#36AFFD"/><stop offset=".92" stop-color="#26A6FE"/><stop offset="1" stop-color="#23A0FD"/></radialGradient><radialGradient id="paint4_radial" cx="0" cy="0" r="1" gradientUnits="userSpaceOnUse" gradientTransform="translate(847.05 205.02) scale(91.2871)"><stop stop-color="#F7FCFD"/><stop offset=".26" stop-color="#82D3FD"/><stop offset=".41" stop-color="#74CDFD"/><stop offset=".53" stop-color="#60C5FE"/><stop offset=".74" stop-color="#48BAFD"/><stop offset=".83" stop-color="#36AFFD"/><stop offset=".92" stop-color="#26A6FE"/><stop offset="1" stop-color="#23A0FD"/></radialGradient><radialGradient id="paint5_radial" cx="0" cy="0" r="1" gradientUnits="userSpaceOnUse" gradientTransform="rotate(.81 -3069.95 189021.2) scale(15.2333)"><stop stop-color="#FAFAFA"/><stop offset=".26" stop-color="#ECECEC"/><stop offset=".41" stop-color="#E7E7E7"/><stop offset=".74" stop-color="#D2D2D2"/><stop offset=".83" stop-color="#CDCDCD"/><stop offset="1" stop-color="#AEAEAE"/></radialGradient></defs></svg>