<svg width="82" height="28" fill="none" xmlns="http://www.w3.org/2000/svg"><path d="M1.901 9.265l-.544-.996a3 3 0 01-.145-2.544L3.214.755C3.626.035 4.368.178 4.634.73c1.67 3.436 6.021 21.74 6.021 21.74L4.21 5.49c-.04-.223-.371-.25-.438-.026L2.34 9.253a.243.243 0 01-.438.012zM23.017 25.12a4.13 4.13 0 01-1.021 1.389c-.438.38-.942.682-1.512.892a5.39 5.39 0 01-1.844.314h-.81c-.649 0-1.272-.105-1.843-.314a4.55 4.55 0 01-1.512-.892 4.13 4.13 0 01-1.021-1.39c-.252-.538-.371-1.14-.371-1.783v-.066c0-.63.119-1.193.345-1.718a4.27 4.27 0 01.941-1.363 3.45 3.45 0 01-1.207-1.22 3.28 3.28 0 01-.45-1.704c0-.564.119-1.089.357-1.574a3.1 3.1 0 01.995-1.18 4.913 4.913 0 01-1.207-1.573 4.644 4.644 0 01-.438-2.02V9.712c0-.643.12-1.259.372-1.823a4.558 4.558 0 011.021-1.495c.438-.432.942-.76 1.512-1.01a4.626 4.626 0 011.844-.366h.809c.796 0 1.525.17 2.188.524.663.354 1.22.826 1.672 1.416l1.02-1.56c.027-.04.067-.066.107-.066h.438c.08 0 .132.053.132.131v5.455c0 .643-.12 1.259-.371 1.823a4.558 4.558 0 01-1.021 1.495 4.91 4.91 0 01-1.512 1.01 4.58 4.58 0 01-1.844.367h-2.812c-.225 0-.438.039-.637.13-.199.092-.371.21-.53.355-.16.144-.265.314-.358.524-.08.197-.133.42-.133.63 0 .21.04.432.133.629.08.197.199.367.358.524.159.158.331.263.53.354.2.08.412.132.637.132h2.653c.65 0 1.273.105 1.843.314a4.55 4.55 0 011.512.892c.438.38.77.852 1.022 1.39.252.538.371 1.14.371 1.783v.066a3.943 3.943 0 01-.358 1.783zm-1.393-15.5c0-.38-.08-.747-.225-1.088a2.563 2.563 0 00-.61-.879 2.82 2.82 0 00-.902-.59 2.797 2.797 0 00-1.101-.223H17.18a2.845 2.845 0 00-1.99.813c-.252.25-.45.538-.596.879a2.71 2.71 0 00-.226 1.088v1.416c0 .38.08.748.226 1.089a2.76 2.76 0 001.486 1.469c.344.143.702.222 1.1.222h1.605c.384 0 .756-.079 1.1-.223.346-.144.637-.34.903-.59a2.711 2.711 0 00.836-1.967V9.62zm-.08 13.572c0-.38-.079-.735-.225-1.036a2.299 2.299 0 00-.597-.774 2.755 2.755 0 00-.888-.485 3.338 3.338 0 00-1.101-.17h-.995c-.385 0-.756.052-1.1.17a2.756 2.756 0 00-.89.485 2.3 2.3 0 00-.596.774 2.38 2.38 0 00-.226 1.036v.249c0 .38.08.734.226 1.036.146.301.345.563.597.773.252.21.543.38.888.485.345.118.703.17 1.101.17h.995c.384 0 .756-.052 1.1-.17.346-.118.637-.275.89-.485.251-.21.45-.472.596-.773.146-.302.226-.643.226-1.036v-.25zM37.553 18.773a4.557 4.557 0 01-1.02 1.494 4.91 4.91 0 01-1.513 1.01 4.627 4.627 0 01-1.843.367h-1.3c-.65 0-1.274-.118-1.844-.367a4.613 4.613 0 01-1.512-1.01 4.85 4.85 0 01-1.021-1.494 4.484 4.484 0 01-.372-1.823V9.738c0-.643.12-1.259.372-1.823a4.558 4.558 0 011.021-1.494c.438-.433.942-.761 1.512-1.01a4.626 4.626 0 011.844-.367h1.3c.65 0 1.273.118 1.843.367.584.249 1.088.577 1.512 1.01.438.432.77.93 1.022 1.494.252.577.37 1.18.37 1.823v3.763h-8.86v3.567c0 .38.08.747.226 1.088a2.759 2.759 0 001.485 1.469c.346.144.704.223 1.102.223h1.3a2.844 2.844 0 001.99-.813c.251-.25.45-.538.596-.879a2.71 2.71 0 00.225-1.088v-.905c0-.079.08-.144.16-.131l1.67.275a.128.128 0 01.107.132v.524c0 .616-.12 1.233-.371 1.81zM35.989 9.62c0-.38-.08-.747-.225-1.088a2.759 2.759 0 00-1.486-1.469 2.796 2.796 0 00-1.1-.223h-1.3a2.845 2.845 0 00-1.99.813c-.252.25-.45.538-.597.879a2.71 2.71 0 00-.225 1.088v2.373h6.923V9.62zM50.592 21.592V9.633c0-.393-.08-.76-.226-1.101a3.033 3.033 0 00-.61-.905 2.914 2.914 0 00-2.042-.826h-1.008c-.398 0-.77.078-1.128.223-.345.144-.65.354-.915.603s-.464.55-.61.905c-.146.34-.226.72-.226 1.101v11.959h-1.99V5.463c0-.078.054-.13.133-.13h.412c.04 0 .093.025.106.065l1.021 1.586a4.916 4.916 0 011.671-1.442 4.015 4.015 0 012.189-.485h.49a3.818 3.818 0 011.844.328 4.65 4.65 0 011.512 1.022c.438.433.77.945 1.021 1.521.253.577.345 1.862.345 1.862v11.802h-1.99zM66.932 18.773a4.557 4.557 0 01-1.02 1.494 4.91 4.91 0 01-1.513 1.01 4.627 4.627 0 01-1.843.367h-1.3c-.65 0-1.274-.118-1.844-.367a4.613 4.613 0 01-1.512-1.01 4.85 4.85 0 01-1.021-1.494 4.484 4.484 0 01-.372-1.823V9.738c0-.643.12-1.259.372-1.823A4.558 4.558 0 0157.9 6.421c.438-.433.942-.761 1.512-1.01a4.626 4.626 0 011.844-.367h1.3c.65 0 1.273.118 1.843.367.584.249 1.088.577 1.512 1.01.438.432.77.93 1.021 1.494.252.577.372 1.18.372 1.823v.524c0 .066-.053.118-.106.132l-1.671.275c-.08.013-.16-.053-.16-.131v-.905c0-.38-.08-.747-.225-1.088a2.759 2.759 0 00-1.486-1.469 2.796 2.796 0 00-1.1-.223h-1.3a2.845 2.845 0 00-1.99.813c-.252.25-.45.538-.597.879a2.71 2.71 0 00-.225 1.088v7.435c0 .38.08.747.225 1.088a2.759 2.759 0 001.486 1.469c.345.144.703.223 1.1.223h1.3a2.844 2.844 0 001.99-.813c.252-.25.45-.538.597-.879a2.71 2.71 0 00.225-1.088v-.905c0-.079.08-.144.16-.131l1.67.275a.128.128 0 01.107.132v.524c0 .616-.12 1.233-.372 1.81zM73.816 27.729h-1.883l2.878-7.868-5.24-14.79h1.937l4.218 12.26.066.838.067-.839 4.204-12.26H82L73.816 27.73z" fill="#1E96FD"/></svg>