<svg width="1200" height="433" fill="none" xmlns="http://www.w3.org/2000/svg"><path d="M1197.91 111.36c-26.26-12.16-88.1-22.14-125.43 35.26-37.32 57.4-74.9 35.95-89.02 18.06-27.57-25.92-93.41-55.86-136.26 31.7-42.84 87.56-107.82 46.99-134.96 15.76-40.11-55.25-171.99-144.06-231.95-46.7-30.94 50.26-129.68 209.27-191.58 216.17-41.78 4.66-115.48-3.2-175.81-77.91-60.33-74.72-116.72-75.11-137.37-65.97" stroke="#99E9F9"/><path d="M1200.14 66.92c-33.4-12.86-109.58-19.22-147.1 58.2-37.53 77.41-74.04 96.38-114.3 72.85-42.03-27.14-141.66-64.28-203.97 4.28-62.32 68.56-136.39 34.2-153.65 29.08-17.27-5.13-128.9-75.06-211.12 16.94C265.2 365.53 222.84 387.5 184.62 380.89c-36.23-6.26-97.26-101.26-108.94-133.63-12.6-34.92-47-92.93-83.82-45.51" stroke="#1E96FD"/><circle cx="614.44" cy="135.88" r="4" transform="rotate(2.87 614.44 135.88)" fill="#1E96FD"/><circle cx="64.1" cy="257.15" r="3" transform="rotate(2.87 64.1 257.15)" fill="#1E96FD"/><circle cx="1122.31" cy="111.32" r="11" transform="rotate(2.87 1122.31 111.32)" fill="#1E96FD"/></svg>